<?xml version="1.0" standalone="no"?>
<!DOCTYPE svg PUBLIC "-//W3C//DTD SVG 20010904//EN"
 "http://www.w3.org/TR/2001/REC-SVG-20010904/DTD/svg10.dtd">
<svg version="1.0" xmlns="http://www.w3.org/2000/svg"
 width="256.000000pt" height="256.000000pt" viewBox="0 0 256.000000 256.000000"
 preserveAspectRatio="xMidYMid meet">
<metadata>
Created by potrace 1.16, written by Peter Selinger 2001-2019
</metadata>
<g transform="translate(0.000000,256.000000) scale(0.100000,-0.100000)"
fill="#000000" stroke="none">
<path d="M1070 2554 c-412 -75 -757 -329 -940 -694 -45 -89 -78 -178 -107
-289 -26 -96 -26 -486 0 -582 132 -499 467 -834 962 -965 102 -28 488 -28 590
0 395 104 687 339 862 691 39 77 65 148 99 265 25 87 31 433 10 541 -79 398
-329 729 -688 910 -78 39 -166 73 -266 101 -66 19 -106 22 -287 24 -115 1
-221 0 -235 -2z m552 -285 c73 -16 143 -86 154 -154 19 -132 -21 -242 -130
-350 -106 -106 -219 -152 -335 -139 l-56 6 -53 -56 c-107 -113 -149 -268 -138
-516 3 -80 6 -253 7 -385 l1 -239 -27 -23 c-29 -26 -52 -29 -89 -12 -44 20
-48 49 -37 250 6 101 13 256 16 344 8 214 19 300 50 392 31 93 76 168 144 244
l50 56 -25 49 c-36 70 -31 172 14 268 55 117 185 228 304 260 66 18 84 19 150
5z"/>
</g>
</svg>
